<svg xmlns="http://www.w3.org/2000/svg" version="1.0" viewBox="0 0 841.89 595.28"><style>@keyframes ani{0%{fill:#c7589e}20%{fill:#ed5b6e}40%{fill:#f9b919}60%{fill:#26abe2}80%{fill:#129f4d}}</style><path fill="#22abe3" d="M401.49 393.3v1.86h.03v-1.84l-.03-.02zm0 13.26v.92h.03v-.92h-.03z"/><path fill="#009f4d" d="M661.76 289.9v204.5a21.77 21.77 0 11-43.54 0V289.9c0-38.92-12.13-75.07-32.83-104.84a21.73 21.73 0 012.5-27.77l.06-.06c9.53-9.53 25.46-8.29 33.16 2.78a226.82 226.82 0 0140.65 129.89z"/><path fill="#26abe2" d="M564.76 134.6l-.07.07a21.73 21.73 0 01-27.58 2.63 183.3 183.3 0 00-103.22-31.69c-101.62 0-184.26 82.67-184.29 184.29v204.5a21.77 21.77 0 11-43.54 0V289.9c.03-125.84 102-227.84 227.84-227.84 47.42 0 91.46 14.5 127.93 39.28 11.2 7.62 12.51 23.68 2.93 33.26z"/><path fill="#ed5b6e" d="M335.93 210.72a21.85 21.85 0 013.45 26.24 107.7 107.7 0 00-13.84 52.94v162.92a21.77 21.77 0 11-43.54 0V289.9c0-27.07 7.09-52.48 19.5-74.48a21.8 21.8 0 0134.41-4.72l.02.02z"/><path fill="#f9b919" d="M585.81 289.9v162.92a21.77 21.77 0 11-43.54 0V289.9c-.03-59.75-48.62-108.34-108.37-108.34-17.37 0-33.8 4.11-48.37 11.41a21.94 21.94 0 01-25.43-3.91l-.03-.03c-10.39-10.38-7.83-28.05 5.27-34.69a151.15 151.15 0 0168.56-16.32c83.9-.01 151.89 67.97 151.91 151.88z"/><path fill="#c7589e" d="M433.89 213.95a75.97 75.97 0 00-75.95 75.95v120.51a21.77 21.77 0 1043.54 0V358.7c0-.03.03-.05.05-.03a75.6 75.6 0 0032.35 7.21 75.62 75.62 0 0032.37-7.21c.02-.01.05.01.05.03v51.71a21.77 21.77 0 1043.54 0V289.9a75.94 75.94 0 00-75.95-75.95zm32.43 75.98c0 21.23-20.49 37.73-42.79 30.79-13.29-4.14-22.03-16.89-22.03-30.81.03-21.29 20.53-37.76 42.83-30.76 13.27 4.15 21.99 16.87 21.99 30.78z" style="animation:ani 5s steps(1,end) infinite"/></svg>